<svg version="1.1" xmlns="http://www.w3.org/2000/svg" viewBox="-100 0 800 301.5927959478088">
  <!-- svg-source:excalidraw -->
  <defs>
    <style>
      @font-face {
        font-family: "Virgil";
        src: url("https://excalidraw.com/FG_Virgil.woff2");
      }
      @font-face {
        font-family: "Cascadia";
        src: url("https://excalidraw.com/Cascadia.woff2");
      }
    </style>
  </defs>
  <rect x="0" y="0" width="491.22973748770534" height="301.5927959478088" fill="#ffffff"></rect><g transform="translate(221.35617139488448 72.10709233119152) rotate(0 22 12.5)"><text x="0" y="18" font-family="Virgil, Segoe UI Emoji" font-size="20px" fill="#000000" text-anchor="start" style="white-space: pre;" direction="ltr">CEO</text></g><g transform="translate(185.70382764488448 121.99771733119152) rotate(0 56 12.5)"><text x="0" y="18" font-family="Virgil, Segoe UI Emoji" font-size="20px" fill="#000000" text-anchor="start" style="white-space: pre;" direction="ltr">CTO | CPO</text></g><g transform="translate(91.51242139488448 193.09927983119152) rotate(0 157.5 10)"><text x="0" y="14" font-family="Virgil, Segoe UI Emoji" font-size="16px" fill="#000000" text-anchor="start" style="white-space: pre;" direction="ltr">Architects | Middle management | PO/PM</text></g><g transform="translate(118.58664014488448 241.97818608119152) rotate(0 129.5 12.5)"><text x="0" y="18" font-family="Virgil, Segoe UI Emoji" font-size="20px" fill="#000000" text-anchor="start" style="white-space: pre;" direction="ltr">Devs | Ops | Support | QA</text></g><g><g transform="translate(249.18815957158785 11.659395360397156) rotate(0 -118.30839401722417 137.7427241639327)"><path d="M0.11911908835172658 -0.40248617380857465 C-39.17397402230338 45.59956412156423, -196.37083934860607 229.71177707711857, -235.572561304476 275.8908400067687 M-1.2774821196030826 -1.659395360397175 C-40.7807546804721 44.51041365936709, -197.64557026711594 230.5156096864274, -236.73590712280003 277.1448436882626" stroke="#000000" stroke-width="1" fill="none"></path></g></g><g><g transform="translate(11.031484214961495 291.9673363557645) rotate(0 234.11164718046783 -5.303728709579474)"><path d="M-1.0314842149615286 -0.37454040795564647 C77.30886765941976 -1.9557463343938273, 390.6471308641135 -7.078729305664739, 469.25477857589715 -8.422567983567763 M0.6278478428442029 -1.6167780674714596 C78.85806719970888 -3.0347370383360817, 389.8792758850473 -8.756423809152757, 468.18071608808816 -10.232917011203291" stroke="#000000" stroke-width="1" fill="none"></path></g></g><g><g transform="translate(249.2007675107754 11.301671250360187) rotate(0 115.4453605799377 134.6519559024879)"><path d="M0.21041961461305614 0.3652169868350028 C38.46416467508612 45.20081754022897, 191.26645442053365 224.96026587158744, 229.84770039653404 269.79255984539157 M-1.1382488170545548 -0.4886480404157192 C37.450569833995154 43.934243238388234, 193.27711773556348 222.81914567577957, 232.02896997692994 268.036475135507" stroke="#000000" stroke-width="1" fill="none"></path></g></g><g><g transform="translate(64.03976514488448 225.90396733119152) rotate(0 186.88924407879358 -0.03850141276606678)"><path d="M-0.6784195259213447 0.011064250767230943 C61.490646410485105 -0.1802965566515923, 310.0157128656904 -0.19014567583799358, 372.331667535007 -0.31548017710447307 M1.1662714936304837 -1.0287309629190715 C63.74926911721316 -1.1336200866568835, 312.59631004810024 0.7664464294444769, 374.45690768350846 0.9517281373869628" stroke="#000000" stroke-width="1" fill="none"></path></g></g><g><g transform="translate(374.0475776448845 157.56021733119152) rotate(0 -126.08346703907011 -0.18647277940996787)"><path d="M0.28592902868986125 -0.31985611170530315 C-41.412598927319046 -0.17024249285459514, -209.37609804421663 -0.2658017560839653, -251.2032743766904 -0.1019684717059135 M-1.0230969605874272 -1.533384515689686 C-42.84134408543818 -1.1377700612414627, -210.712021902008 0.5536587976943702, -252.45286310683005 1.1604389568697662" stroke="#000000" stroke-width="1" fill="none"></path></g></g><g><g transform="translate(171.63742139488448 100.87662358119152) rotate(0 74.31611678177956 -1.8549004241824179)"><path d="M0.9686775371432306 -0.16660455912351613 C25.67973515242338 -0.8126604959368706, 123.93221809118985 -3.241535799205303, 148.61413904875516 -3.543196289241314 M0.01809451480396085 -1.2996758980024605 C24.560939995544032 -1.8436782190669327, 123.01553325136193 -2.00543913369067, 147.78754002322444 -2.4447576836217193" stroke="#000000" stroke-width="1" fill="none"></path></g></g></svg>
