<svg version="1.1" xmlns="http://www.w3.org/2000/svg" viewBox="0 0 623.0408541060984 510.4062500000001" width="1246.0817082121969" height="1020.8125000000002">
  <!-- svg-source:excalidraw -->
  
  <defs>
    <style>
      @font-face {
        font-family: "Virgil";
        src: url("https://excalidraw.com/Virgil.woff2");
      }
      @font-face {
        font-family: "Cascadia";
        src: url("https://excalidraw.com/Cascadia.woff2");
      }
    </style>
  </defs>
  <rect x="0" y="0" width="623.0408541060984" height="510.4062500000001" fill="#ffffff"></rect><g stroke-linecap="round" transform="translate(172.54866660609844 10) rotate(0 78.5 25.5)"><path d="M0.69 0.77 C37.72 0.1, 77.58 -2.63, 157.52 1.67 M0.11 0.42 C58.16 -1.12, 117.26 -1.67, 157.9 0.82 M156.86 0.35 C157.69 19.72, 157.05 35.4, 156.87 51.05 M156.34 -0.7 C157.12 13.57, 157.81 25.82, 157.99 50.15 M158.32 52.16 C120.51 49.48, 88.33 49.67, 1.75 52.44 M157.26 50.88 C105.24 50.99, 53.5 49.13, -0.74 51.1 M-1.87 52.42 C0.63 40.28, 0.84 30.67, 1.97 1.21 M0.03 51.13 C0.28 36.34, -0.49 21.76, 0.59 0.41" stroke="#000000" stroke-width="1" fill="none"></path></g><g transform="translate(177.54866660609844 25.5) rotate(0 73.5 10)"><text x="73.5" y="14" font-family="Virgil, Segoe UI Emoji" font-size="16px" fill="#000000" text-anchor="middle" style="white-space: pre;" direction="ltr">Main (executable)</text></g><g stroke-linecap="round" transform="translate(12.931479106098436 190.88671875) rotate(0 58.5 26)"><path d="M-0.39 -0.15 C48.2 1.91, 93.05 0.6, 117.26 -0.46 M0.08 0.25 C31.84 -0.77, 62.68 -1.12, 117.73 0.48 M116.34 1.59 C118.34 12.03, 118.61 25.32, 115.66 51.91 M116.97 -0.38 C117.51 15.74, 118.23 29.41, 117.39 52.79 M118.02 53.11 C81.9 49.94, 45.98 51.41, 0.56 52.16 M117.08 52.99 C74.96 51.22, 32.54 52.87, -0.74 51.61 M0.86 50.32 C-1.33 39.22, 2 22.19, 0.45 -1 M0.61 51.04 C-0.15 30.84, -0.03 10.52, 0.77 -0.58" stroke="#000000" stroke-width="1" fill="none"></path></g><g transform="translate(17.931479106098436 206.88671875) rotate(0 53.5 10)"><text x="53.5" y="14" font-family="Virgil, Segoe UI Emoji" font-size="16px" fill="#000000" text-anchor="middle" style="white-space: pre;" direction="ltr">Customer</text></g><g stroke-linecap="round" transform="translate(195.03694785609844 191.505859375) rotate(0 53.5 25)"><path d="M1.54 -1.65 C26.4 -0.38, 53.1 -1.2, 107.51 0.12 M0.68 -0.03 C34.95 -0.49, 68.97 0.18, 107.65 -0.91 M108.7 -0.55 C105.11 15.08, 104.7 29.58, 105.06 49.94 M107.43 -0.23 C107.79 14.6, 107.85 30.61, 106.76 49.1 M106.29 51.08 C64.06 50.48, 24.05 51.95, -1.21 49.27 M106.13 50.11 C76.65 50.01, 45.61 51.13, 0.62 50.85 M-0.99 48.53 C1.54 38.92, -1.51 27.32, 1.73 -0.94 M0.19 50.33 C-0.32 37.6, -0.79 25.58, 0.68 0.19" stroke="#000000" stroke-width="1" fill="none"></path></g><g transform="translate(200.03694785609844 206.505859375) rotate(0 48.5 10)"><text x="48.5" y="14" font-family="Virgil, Segoe UI Emoji" font-size="16px" fill="#000000" text-anchor="middle" style="white-space: pre;" direction="ltr">Film</text></g><g stroke-linecap="round" transform="translate(367.70101035609844 200.083984375) rotate(0 61.5 23.5)"><path d="M-1.86 1.61 C29.62 -1.6, 54.59 0.1, 122.37 0.37 M-0.6 -0.38 C41.6 0.66, 82.4 -0.48, 122.76 -0.11 M123.36 -1.59 C121.59 12.77, 122.14 25.53, 121.57 48.71 M123.95 -0.28 C122.05 10, 123.99 21.13, 122.64 46.03 M123.05 48.49 C98.67 47.72, 73.8 44.56, 1.78 46 M122.46 46.33 C76.99 47.88, 31.81 47.29, -0.67 46.64 M-0.15 45.19 C-1.73 37.39, -0.3 27.61, -0.74 1.86 M-0.44 47.11 C1.16 34.77, 0.05 21.74, -0.22 0.55" stroke="#000000" stroke-width="1" fill="none"></path></g><g transform="translate(372.70101035609844 213.583984375) rotate(0 56.5 10)"><text x="56.5" y="14" font-family="Virgil, Segoe UI Emoji" font-size="16px" fill="#000000" text-anchor="middle" style="white-space: pre;" direction="ltr">Payment</text></g><g stroke-linecap="round" transform="translate(322.58772910609844 336.0390625) rotate(0 58 31.5)"><path d="M0.31 -1.23 C26.55 1.53, 52.33 -0.29, 117.51 1.92 M-0.41 -0.38 C36.42 -0.03, 75.49 0.29, 116.48 -0.3 M116.83 -1.56 C117.04 11.04, 114.93 26.55, 117.34 63.04 M115.76 -0.49 C116.1 16.31, 115.22 33.33, 116.46 62.87 M114.07 62.59 C74.17 63.24, 26.8 60.26, -1.43 62.33 M115.66 63.64 C85.34 62.39, 53.53 62.19, 0.45 63.18 M1.09 62.8 C-1.73 50.53, 1.97 34.47, -1.19 0.78 M-0.04 63.75 C0.03 47.51, 0.26 32.05, 0.04 0.02" stroke="#000000" stroke-width="1" fill="none"></path></g><g transform="translate(327.58772910609844 347.5390625) rotate(0 53 20)"><text x="53" y="14" font-family="Virgil, Segoe UI Emoji" font-size="16px" fill="#000000" text-anchor="middle" style="white-space: pre;" direction="ltr">Common</text><text x="53" y="34" font-family="Virgil, Segoe UI Emoji" font-size="16px" fill="#000000" text-anchor="middle" style="white-space: pre;" direction="ltr">(shared logic)</text></g><g stroke-linecap="round" transform="translate(83.43147910609844 344.3828125) rotate(0 59 24.748046875)"><path d="M-1.18 0.6 C32.38 -0.09, 63.58 -0.98, 119.53 -1.69 M-0.23 -0.26 C36.71 -0.23, 71.93 -0.52, 119 -0.31 M118.19 0.14 C118.3 18.3, 118.16 34.24, 117.63 50.15 M118.58 0.62 C118.3 16.62, 117.8 34.33, 117.76 48.91 M117.31 48.86 C79.94 51.84, 39.8 49.41, 1.97 49.49 M117.76 50.45 C86.84 49.17, 56.39 50.13, -0.89 50.33 M1.5 49.71 C1.75 38.3, -1.1 26.01, -0.6 1.75 M-0.87 48.75 C0.76 30.64, 0.39 10.16, 0.46 -0.14" stroke="#000000" stroke-width="1" fill="none"></path></g><g transform="translate(88.43147910609844 359.130859375) rotate(0 54 10)"><text x="54" y="14" font-family="Virgil, Segoe UI Emoji" font-size="16px" fill="#000000" text-anchor="middle" style="white-space: pre;" direction="ltr">API</text></g><g stroke-linecap="round"><g transform="translate(77.43480135680181 246.37109375) rotate(0 24.39161111497981 48.55093686037699)"><path d="M-0.47 0.82 C7.91 16.61, 41.09 79.79, 49.26 95.76 M1.48 0.21 C9.86 16.65, 40.99 80.59, 48.71 96.89" stroke="#000000" stroke-width="1" fill="none"></path></g><g transform="translate(77.43480135680181 246.37109375) rotate(0 24.39161111497981 48.55093686037699)"><path d="M46.81 95.14 L35.69 86.34 L47.08 80.91 L46.98 97.82" stroke="none" stroke-width="0" fill="#000000" fill-rule="evenodd"></path><path d="M49.74 97.86 C45.18 94.88, 43.77 91.47, 36.07 86.96 M49.01 97.15 C44.91 92.56, 39.46 89.23, 37.33 87.8 M38.15 86.99 C39.12 85.61, 44.23 83.49, 48.26 80.7 M37.52 87.32 C41.71 84.76, 46.07 83.64, 48.31 81.65 M49.72 81.4 C47.86 84.57, 47.1 87.85, 50.09 95.56 M48.98 82.51 C47.9 85.9, 48.75 89.65, 49.22 97.59 M48.71 96.89 C48.71 96.89, 48.71 96.89, 48.71 96.89 M48.71 96.89 C48.71 96.89, 48.71 96.89, 48.71 96.89" stroke="#000000" stroke-width="1" fill="none"></path></g></g><g stroke-linecap="round"><g transform="translate(241.06470922565086 242.505859375) rotate(0 -49.59684615816985 49.725210437923664)"><path d="M0.01 -0.9 C-16.5 15.75, -82.2 83.48, -98.52 100.35 M-1.45 1.25 C-18.11 17.49, -83.09 82.35, -99.2 98.5" stroke="#000000" stroke-width="1" fill="none"></path></g><g transform="translate(241.06470922565086 242.505859375) rotate(0 -49.59684615816985 49.725210437923664)"><path d="M-98.78 99.72 L-95.16 85.51 L-85.66 95.15 L-99.04 99.66" stroke="none" stroke-width="0" fill="#000000" fill-rule="evenodd"></path><path d="M-100.32 99.15 C-96.84 95.08, -95.17 88.71, -95.36 84.16 M-98.74 98.84 C-97.96 93.39, -95.18 89.12, -94.3 84.35 M-94.27 84.68 C-93.53 86.9, -89.74 88.31, -84.51 94.11 M-93.44 84.94 C-91.87 85.79, -89.57 88.74, -84.98 93.86 M-85.78 93.52 C-88.31 95.49, -94.52 96.82, -98.11 97.94 M-84.54 93.57 C-89.36 95.24, -93.81 96.87, -99.31 97.97 M-99.2 98.5 C-99.2 98.5, -99.2 98.5, -99.2 98.5 M-99.2 98.5 C-99.2 98.5, -99.2 98.5, -99.2 98.5" stroke="#000000" stroke-width="1" fill="none"></path></g></g><g stroke-linecap="round"><g transform="translate(397.75236246452494 248.083984375) rotate(0 -110.32296241224947 46.790998512255015)"><path d="M0.66 0.49 C-19.22 7.83, -82.86 28.81, -119.81 44.19 C-156.75 59.58, -204.01 84.67, -221 92.8 M-0.45 -0.3 C-19.92 6.66, -80.86 26.58, -117.67 42.27 C-154.48 57.97, -204.01 85.28, -221.31 93.89" stroke="#000000" stroke-width="1" fill="none"></path></g><g transform="translate(397.75236246452494 248.083984375) rotate(0 -110.32296241224947 46.790998512255015)"><path d="M-220.9 92.05 L-211.49 82.04 L-205.9 92.86 L-222.93 94.01" stroke="none" stroke-width="0" fill="#000000" fill-rule="evenodd"></path><path d="M-220.7 92.51 C-218.5 91.89, -217.22 87.92, -212.53 83.44 M-221.16 93.93 C-217.73 89.3, -215.01 84.46, -212.44 81.72 M-211.04 82.57 C-209.86 84.44, -210.37 86.96, -205.92 92.07 M-212.35 82.58 C-210.72 85.41, -208.49 88.49, -205.94 92.9 M-206.2 94.12 C-211.65 95.07, -216.5 93.6, -221.12 93.09 M-205.61 92.9 C-210.15 94.04, -214.63 93.79, -221.84 94.13 M-221.31 93.89 C-221.31 93.89, -221.31 93.89, -221.31 93.89 M-221.31 93.89 C-221.31 93.89, -221.31 93.89, -221.31 93.89" stroke="#000000" stroke-width="1" fill="none"></path></g></g><g stroke-linecap="round"><g transform="translate(217.60000811258908 63.97265625) rotate(0 -68.21690922324757 63.06114247813821)"><path d="M-0.92 0.63 C-23.56 21.43, -113.13 104.97, -135.51 125.49" stroke="#000000" stroke-width="1.5" fill="none" stroke-dasharray="8 9"></path></g><g transform="translate(217.60000811258908 63.97265625) rotate(0 -68.21690922324757 63.06114247813821)"><path d="M-136.48 125.38 L-130.05 111.76 L-122.16 119.99 L-136.3 124.57" stroke="none" stroke-width="0" fill="#000000" fill-rule="evenodd"></path><path d="M-134.72 124.13 C-133.07 120.03, -133.37 116.61, -129.66 112.98 M-128.87 112.22 C-127.61 115.74, -122.91 119.1, -122.06 121.17 M-120.91 120.62 C-125.41 121.95, -126.51 121.77, -137 125.33 M-135.51 125.49 C-135.51 125.49, -135.51 125.49, -135.51 125.49" stroke="#000000" stroke-width="1.5" fill="none"></path></g></g><g stroke-linecap="round"><g transform="translate(245.14284901962003 63.74609375) rotate(0 5.302580549627692 62.631705810874706)"><path d="M0.66 -0.33 C2.13 20.64, 8.2 104.49, 9.94 125.59" stroke="#000000" stroke-width="1.5" fill="none" stroke-dasharray="8 9"></path></g><g transform="translate(245.14284901962003 63.74609375) rotate(0 5.302580549627692 62.631705810874706)"><path d="M8.56 126.97 L2.97 110.92 L16.84 110.39 L8.85 127.56" stroke="none" stroke-width="0" fill="#000000" fill-rule="evenodd"></path><path d="M9.54 125.45 C6.11 121.88, 4.09 114.62, 3.16 111.91 M1.32 112.4 C5.68 112.7, 11.67 112.08, 15.86 111.75 M16.01 112.31 C13.31 117.07, 10.89 122.46, 8.8 125.46 M9.94 125.59 C9.94 125.59, 9.94 125.59, 9.94 125.59" stroke="#000000" stroke-width="1.5" fill="none"></path></g></g><g stroke-linecap="round"><g transform="translate(271.92116085379473 63.5390625) rotate(0 79.38522590913692 67.65345765128731)"><path d="M1.07 0.03 C27.48 22.63, 131.26 112.6, 157.7 135.28" stroke="#000000" stroke-width="1.5" fill="none" stroke-dasharray="8 9"></path></g><g transform="translate(271.92116085379473 63.5390625) rotate(0 79.38522590913692 67.65345765128731)"><path d="M159.35 133.6 L141.76 131.67 L149.6 120.7 L158.07 134.24" stroke="none" stroke-width="0" fill="#000000" fill-rule="evenodd"></path><path d="M157.73 134 C154 135.72, 151.65 133.14, 142.27 130.67 M144.19 132.25 C144.96 128.76, 146.14 126.21, 152.12 120.7 M150.09 123.09 C153.47 123.09, 154.5 127.67, 156.28 134.68 M157.7 135.28 C157.7 135.28, 157.7 135.28, 157.7 135.28" stroke="#000000" stroke-width="1.5" fill="none"></path></g></g><g stroke-linecap="round"><g transform="translate(126.04476035609844 242.5390625) rotate(0 96.97753091183961 47.494736430380186)"><path d="M0.45 -0.17 C32.86 15.69, 162.36 80.13, 194.72 96.29 M-0.77 -1.3 C31.5 14.71, 161.54 78.42, 194 94.46" stroke="#000000" stroke-width="1" fill="none"></path></g><g transform="translate(126.04476035609844 242.5390625) rotate(0 96.97753091183961 47.494736430380186)"><path d="M192.41 95.47 L178.67 93.02 L184.84 81.7 L194.89 94.45" stroke="none" stroke-width="0" fill="#000000" fill-rule="evenodd"></path><path d="M193.79 95.01 C189.87 94.83, 185.63 95.27, 178.15 94.88 M193.69 94.05 C189.91 94.76, 185.99 94.79, 179.41 93.9 M178.72 93.45 C181.6 89.91, 183.88 84.97, 184.33 82.77 M179.61 94.45 C181.57 89.52, 183 85.49, 184.31 82.55 M183.16 84.18 C186.73 87.49, 192.39 91.96, 195.32 95.47 M184.81 82.94 C188.13 86.37, 189.8 90.17, 193.47 94.27 M194 94.46 C194 94.46, 194 94.46, 194 94.46 M194 94.46 C194 94.46, 194 94.46, 194 94.46" stroke="#000000" stroke-width="1" fill="none"></path></g></g><g stroke-linecap="round"><g transform="translate(250.45856875692732 243.40234375) rotate(0 49.29921165703354 45.88701483916958)"><path d="M0.71 0.4 C17.1 15.91, 82.62 76.94, 98.98 92.2 M-0.38 -0.43 C15.87 14.79, 81.96 74.73, 98.44 90.38" stroke="#000000" stroke-width="1" fill="none"></path></g><g transform="translate(250.45856875692732 243.40234375) rotate(0 49.29921165703354 45.88701483916958)"><path d="M97.46 88.82 L83.4 86.19 L92.2 78.28 L99.98 88.68" stroke="none" stroke-width="0" fill="#000000" fill-rule="evenodd"></path><path d="M98.94 91.34 C94.17 89.69, 88.88 87.72, 84.15 87.21 M98.19 90.06 C94.3 88.72, 90.4 87.68, 83.58 85.69 M85.15 84.61 C86.44 82.55, 91.24 80.63, 92.72 77.04 M84.12 85.2 C86.5 82.54, 88.74 79.92, 92.28 76.82 M91.55 77.31 C95.12 80.04, 97.01 84.66, 99.34 90.65 M92.31 76.72 C94.61 79.21, 94.84 83.07, 98.97 90.82 M98.44 90.38 C98.44 90.38, 98.44 90.38, 98.44 90.38 M98.44 90.38 C98.44 90.38, 98.44 90.38, 98.44 90.38" stroke="#000000" stroke-width="1" fill="none"></path></g></g><g stroke-linecap="round"><g transform="translate(262.20711131776613 66.69140625) rotate(0 56.739843819785165 133.17651127800346)"><path d="M0.5 -0.32 C8.62 18.55, 30.36 68.15, 49.11 112.65 C67.86 157.15, 102.27 241.2, 112.98 266.68" stroke="#000000" stroke-width="1.5" fill="none" stroke-dasharray="8 9"></path></g><g transform="translate(262.20711131776613 66.69140625) rotate(0 56.739843819785165 133.17651127800346)"><path d="M114.77 268.22 L100.22 254.76 L112.12 250.34 L112.89 265.19" stroke="none" stroke-width="0" fill="#000000" fill-rule="evenodd"></path><path d="M112.58 267.59 C109.63 262.09, 106.25 259.23, 101.01 257.01 M102.89 257.46 C107.1 253.72, 109.99 252.4, 112.39 251.55 M112.93 252.22 C114.89 256.8, 113.91 264.02, 112.85 265.77 M112.98 266.68 C112.98 266.68, 112.98 266.68, 112.98 266.68" stroke="#000000" stroke-width="1.5" fill="none"></path></g></g><g stroke-linecap="round"><g transform="translate(441.29669631123954 248.083984375) rotate(0 -13.421344597320171 43.541280959644354)"><path d="M0.88 -1.01 C-3.92 13.47, -23.16 72.15, -27.73 86.69 M-0.11 1.08 C-4.66 15.74, -21.08 73.74, -25.59 88.09" stroke="#000000" stroke-width="1" fill="none"></path></g><g transform="translate(441.29669631123954 248.083984375) rotate(0 -13.421344597320171 43.541280959644354)"><path d="M-26.42 87.9 L-26.37 73.05 L-16.8 78.64 L-27.34 89.84" stroke="none" stroke-width="0" fill="#000000" fill-rule="evenodd"></path><path d="M-26.85 86.71 C-26.77 82.42, -28.21 75.09, -28.99 74.22 M-25.4 88.37 C-26.34 82.6, -26.79 76.81, -28.08 73.43 M-27.78 73.14 C-23.74 75.31, -21.38 75.6, -14.83 77.34 M-27.91 73.02 C-24.76 74.58, -22.06 75.38, -16.14 76.76 M-14.65 76.55 C-20.29 81.37, -23.33 85.32, -25.66 87.1 M-15.57 77.37 C-18.49 78.84, -19.91 81.4, -26.31 87.97 M-25.59 88.09 C-25.59 88.09, -25.59 88.09, -25.59 88.09 M-25.59 88.09 C-25.59 88.09, -25.59 88.09, -25.59 88.09" stroke="#000000" stroke-width="1" fill="none"></path></g></g><g stroke-linecap="round" transform="translate(545.0408541060984 17.8203125) rotate(0 34 193)"><path d="M-1.44 -1.59 C26.51 0.84, 54.07 -0.85, 67.47 0.32 M68.51 0.67 C67.86 150.01, 67.72 302.14, 67.02 386.25 M68.25 387.57 C46.4 384.85, 24.3 385.64, -1.13 386.65 M0.64 386.89 C1.05 277.38, -0.75 169.05, -0.59 0.38" stroke="#000000" stroke-width="1.5" fill="none" stroke-dasharray="8 9"></path></g><g transform="translate(550.0408541060984 190.8203125) rotate(0 29 20)"><text x="29" y="14" font-family="Virgil, Segoe UI Emoji" font-size="16px" fill="#000000" text-anchor="middle" style="white-space: pre;" direction="ltr">Event </text><text x="29" y="34" font-family="Virgil, Segoe UI Emoji" font-size="16px" fill="#000000" text-anchor="middle" style="white-space: pre;" direction="ltr">Bus</text></g><g stroke-linecap="round"><g transform="translate(500.31038535609844 216.0390625) rotate(0 17.628882148116872 0.30578611487473495)"><path d="M-0.97 0.97 C4.9 0.99, 29.88 -0.17, 36.23 -0.36" stroke="#000000" stroke-width="1.5" fill="none" stroke-dasharray="1.5 7"></path></g><g transform="translate(500.31038535609844 216.0390625) rotate(0 17.628882148116872 0.30578611487473495)"><path d="M37.81 0.94 L23.27 5.87 L24 -5.63 L34.35 1.4" stroke="none" stroke-width="0" fill="#000000" fill-rule="evenodd"></path><path d="M37.44 -0.13 C30.57 3.52, 25.63 5.72, 22.27 5.57 M22.07 6.88 C22.97 3.75, 21.44 -1.07, 21.32 -5.83 M21.36 -6.18 C27.85 -4.86, 31.01 -3.33, 35.64 -0.2 M36.23 -0.36 C36.23 -0.36, 36.23 -0.36, 36.23 -0.36" stroke="#000000" stroke-width="1.5" fill="none"></path></g></g><g stroke-linecap="round"><g transform="translate(21.509604106098493 248.69140625) rotate(0 254.53815593371172 87.9180050146833)"><path d="M0.89 -0.49 C7.77 27.47, -44.78 143.47, 41.37 168.36 C127.53 193.25, 438.75 152.14, 517.84 148.85" stroke="#000000" stroke-width="1.5" fill="none" stroke-dasharray="1.5 7"></path></g><g transform="translate(21.509604106098493 248.69140625) rotate(0 254.53815593371172 87.9180050146833)"><path d="M518.22 149.97 L506.09 156.84 L502.75 144.03 L519.41 147.98" stroke="none" stroke-width="0" fill="#000000" fill-rule="evenodd"></path><path d="M517.23 148.59 C513.89 152.3, 511.2 152.17, 505.94 154.93 M503.86 156.22 C505.1 151.71, 503.56 147.39, 503.34 142.94 M503.76 144.13 C506.99 145.96, 509.69 146.21, 518.82 148.42 M517.84 148.85 C517.84 148.85, 517.84 148.85, 517.84 148.85" stroke="#000000" stroke-width="1.5" fill="none"></path></g></g><g stroke-linecap="round"><g transform="translate(304.37288535609844 216.32421875) rotate(0 119.47455301061268 -64.80904658809305)"><path d="M-0.53 -0.65 C19.19 -19.5, 79.06 -90.56, 119.06 -111.95 C159.06 -133.33, 219.67 -126.03, 239.48 -128.97" stroke="#000000" stroke-width="1.5" fill="none" stroke-dasharray="1.5 7"></path></g><g transform="translate(304.37288535609844 216.32421875) rotate(0 119.47455301061268 -64.80904658809305)"><path d="M239.22 -129.65 L226.64 -122.08 L224.72 -135.96 L240.18 -130.93" stroke="none" stroke-width="0" fill="#000000" fill-rule="evenodd"></path><path d="M238.66 -130.26 C235.57 -125.17, 229.62 -124.68, 225.09 -123.54 M226.34 -121.17 C225.96 -125.68, 224.88 -132.14, 226.63 -134.97 M226.18 -136.16 C231.66 -131.77, 234.42 -129.46, 240.05 -128.2 M239.48 -128.97 C239.48 -128.97, 239.48 -128.97, 239.48 -128.97" stroke="#000000" stroke-width="1.5" fill="none"></path></g></g><g stroke-linecap="round"><g transform="translate(437.64093772882404 469.77288108982407) rotate(0 77.9319065453401 -1.2579046468954402)"><path d="M0.42 -0.93 C26.16 -1.02, 129.34 -1.34, 155.44 -1.58" stroke="#000000" stroke-width="1.5" fill="none" stroke-dasharray="1.5 7"></path></g><g transform="translate(437.64093772882404 469.77288108982407) rotate(0 77.9319065453401 -1.2579046468954402)"><path d="M153.86 -2.28 L140.66 4.81 L143.07 -9.36 L157.2 -2.16" stroke="none" stroke-width="0" fill="#000000" fill-rule="evenodd"></path><path d="M154.27 -2.64 C151.2 1.89, 144.97 2.24, 142.71 4.63 M140.95 3.58 C142.25 1.18, 141.89 -1.11, 142.11 -8.18 M141.08 -7.98 C146.3 -5.72, 147.34 -6.13, 154.63 -2.59 M155.44 -1.58 C155.44 -1.58, 155.44 -1.58, 155.44 -1.58" stroke="#000000" stroke-width="1.5" fill="none"></path></g></g><g transform="translate(447.3681046857944 478.0394213718931) rotate(0 66.2760360385584 8.956221086291691)"><text x="0" y="12.912442172583347" font-family="Virgil, Segoe UI Emoji" font-size="14.329953738066678px" fill="#000000" text-anchor="start" style="white-space: pre;" direction="ltr">Publishes/consumes</text></g><g stroke-linecap="round"><g transform="translate(216.62802555129508 467.24478428287716) rotate(0 78.90787871863711 1.4223066748200495)"><path d="M-0.91 1.07 C25.69 1.26, 132.18 1.64, 158.73 1.78" stroke="#000000" stroke-width="1.5" fill="none" stroke-dasharray="8 9"></path></g><g transform="translate(216.62802555129508 467.24478428287716) rotate(0 78.90787871863711 1.4223066748200495)"><path d="M158.43 3.61 L146.99 7.13 L146.84 -5.14 L157.13 0.4" stroke="none" stroke-width="0" fill="#000000" fill-rule="evenodd"></path><path d="M160.06 0.97 C156.35 1.89, 153.41 5.57, 144 7.01 M146.03 8.85 C145.27 3.81, 144.73 -0.33, 146.38 -5.84 M143.83 -5.75 C148.97 -1.85, 150.27 -3.32, 158.61 2.89 M158.73 1.78 C158.73 1.78, 158.73 1.78, 158.73 1.78" stroke="#000000" stroke-width="1.5" fill="none"></path></g></g><g transform="translate(245.81481118594445 481.86496164812615) rotate(0 40.750805942627096 8.956221086291691)"><text x="0" y="12.912442172583347" font-family="Virgil, Segoe UI Emoji" font-size="14.32995373806668px" fill="#000000" text-anchor="start" style="white-space: pre;" direction="ltr">Bootstraps</text></g><g stroke-linecap="round"><g transform="translate(10.763510356098436 469.25501281988204) rotate(0 81.20346925576354 -0.7172487875819797)"><path d="M-0.76 -1.01 C26.26 -1.29, 135.98 -0.78, 163.17 -1.01 M1.04 1.08 C27.85 0.43, 135.69 -2.13, 162.41 -2.51" stroke="#000000" stroke-width="1" fill="none"></path></g><g transform="translate(10.763510356098436 469.25501281988204) rotate(0 81.20346925576354 -0.7172487875819797)"><path d="M163.09 -1.11 L149.19 3.69 L148.8 -9.77 L163.26 -3.84" stroke="none" stroke-width="0" fill="#000000" fill-rule="evenodd"></path><path d="M161.15 -2.06 C158.74 -0.63, 151.82 1.44, 149.25 4.56 M162.89 -2.32 C158.45 -1.6, 155.27 0.3, 149.66 3.87 M150.17 4.37 C149.99 0.33, 149.21 -5.53, 148.97 -7.84 M149.56 4.36 C149.04 -1.05, 148.27 -6.11, 148.56 -9.08 M149.55 -9.94 C151.2 -6.27, 155.65 -5.61, 163.44 -3.33 M148.68 -9.22 C153.57 -6.61, 157.14 -4.96, 162.9 -3.25 M162.41 -2.51 C162.41 -2.51, 162.41 -2.51, 162.41 -2.51 M162.41 -2.51 C162.41 -2.51, 162.41 -2.51, 162.41 -2.51" stroke="#000000" stroke-width="1" fill="none"></path></g></g><g transform="translate(36.74340965338661 482.49380782741673) rotate(0 55.97638178932294 8.956221086291691)"><text x="0" y="12.912442172583347" font-family="Virgil, Segoe UI Emoji" font-size="14.329953738066678px" fill="#000000" text-anchor="start" style="white-space: pre;" direction="ltr">Uses/implements</text></g></svg>